<?xml version="1.0" encoding="UTF-8" standalone="no"?>
<!-- Created with Inkscape (http://www.inkscape.org/) -->

<svg
   xmlns:dc="http://purl.org/dc/elements/1.1/"
   xmlns:cc="http://creativecommons.org/ns#"
   xmlns:rdf="http://www.w3.org/1999/02/22-rdf-syntax-ns#"
   xmlns:svg="http://www.w3.org/2000/svg"
   xmlns="http://www.w3.org/2000/svg"
   xmlns:inkscape="http://www.inkscape.org/namespaces/inkscape"
   version="1.1"
   width="570.6875"
   height="165.55"
   id="svg2"
   xml:space="preserve"><metadata
     id="metadata8"><rdf:RDF><cc:Work
         rdf:about=""><dc:format>image/svg+xml</dc:format><dc:type
           rdf:resource="http://purl.org/dc/dcmitype/StillImage" /></cc:Work></rdf:RDF></metadata><defs
     id="defs6"><clipPath
       id="clipPath18"><path
         d="m 0,0 4565.5,0 0,1324 L 0,1324 0,0 z"
         inkscape:connector-curvature="0"
         id="path20" /></clipPath></defs><g
     transform="matrix(1.25,0,0,-1.25,0,165.55)"
     id="g10"><g
       transform="scale(0.1,0.1)"
       id="g12"><g
         id="g14"><g
           clip-path="url(#clipPath18)"
           id="g16"><path
             d="m 1391.24,1249.03 c -17.07,9.63 -54.39,26.19 -106.13,26.19 -185.98,0 -280.16,-221.55 -280.16,-381.337 0,-111.965 51.32,-214.641 168.52,-214.641 54.9,0 96.98,19.18 147.92,48.242 l -21.48,45.059 c -53.59,-30.645 -80.39,-40.633 -112.55,-40.633 -52.73,0 -95.66,50.879 -95.66,147.528 0,154.542 73.46,343.982 199.53,343.982 37.52,0 67.93,-14.87 81.7,-21.56 l 18.31,47.17"
             inkscape:connector-curvature="0"
             id="path22"
             style="fill:#223161;fill-opacity:1;fill-rule:evenodd;stroke:none" /><path
             d="m 1445.37,807.699 c 0,117.239 53.11,280.621 129.56,280.621 40.7,0 55.27,-44.02 55.27,-83.27 0,-76.577 -39.8,-281.948 -127.99,-281.948 -52.12,0 -56.84,64.804 -56.84,83.718 l 0,0.879 z m -75.85,30.469 c 0,-89.356 46.04,-158.875 127.58,-158.875 137.4,0 208.94,174.902 208.94,301.973 0,64.984 -31.49,149.094 -125.54,149.094 -142.98,0 -210.98,-181.235 -210.98,-291.321 l 0,-0.871"
             inkscape:connector-curvature="0"
             id="path24"
             style="fill:#223161;fill-opacity:1;fill-rule:evenodd;stroke:none" /><path
             d="m 1859.52,1324.38 -114.74,-636.357 72.31,0 114.75,636.357 -72.32,0"
             inkscape:connector-curvature="0"
             id="path26"
             style="fill:#223161;fill-opacity:1;fill-rule:evenodd;stroke:none" /><path
             d="m 2210.65,1299.18 c -36.44,-43.06 -70.85,-63.98 -127.52,-100.06 l 12.5,-29.1 c 45.79,23.5 88.93,44.5 148.21,51.1 l 18.63,58.27 -51.82,19.79 z m -25.52,-248.45 c 0,-88.441 -102.2,-101.781 -151.02,-104.984 41.84,106.434 92.88,141.674 120.79,141.674 18.28,0 30.23,-14.01 30.23,-35.82 l 0,-0.87 z m -16.04,-274.679 c -53.63,-35.871 -81.75,-45.91 -104.94,-45.91 -34.75,0 -56.04,31.445 -56.04,77.609 0,20.867 3.15,60.781 15.54,99.238 29.32,2 85.81,6.453 133.73,27.188 48.84,20.711 89.19,56.277 89.19,119.964 0,38.06 -20.8,76.22 -77.69,76.22 -121.15,0 -235.83,-176.848 -235.83,-316.028 0,-90.539 49.24,-135.09 112.47,-135.09 52.88,0 105.55,31.34 144.91,57.512 l -21.34,39.297"
             inkscape:connector-curvature="0"
             id="path28"
             style="fill:#223161;fill-opacity:1;fill-rule:evenodd;stroke:none" /><path
             d="m 2371.23,560.699 c -31.98,0 -93.38,13.309 -93.38,63.418 0,24.578 13.84,52.996 88.59,92.891 44.28,-22.199 68.34,-33.946 82.81,-46.75 14.43,-11.367 19.77,-22.735 19.77,-39.688 0,-52.363 -64.42,-69.871 -97.01,-69.871 l -0.78,0 z m -19.96,395.293 c 0,63.528 32.2,133.148 79.66,133.148 50.28,0 50.45,-59.03 50.45,-70.6 0,-59.649 -26.17,-139.228 -76.78,-139.228 -32.37,0 -53.33,29.805 -53.33,75.809 l 0,0.871 z m 241.4,165.628 -115.9,0 c -10.31,3.51 -23.27,8.76 -46.33,8.76 -98.08,0 -147.81,-89.52 -147.81,-164.243 0,-72.364 41.3,-99.219 59.16,-110.762 -34.9,-27.195 -51.91,-42.352 -51.91,-66.602 0,-24.218 17.73,-36.328 43.36,-53.515 -65.24,-35.762 -122.53,-64.442 -122.53,-119.129 0,-63.75 84.25,-96.574 153.2,-96.574 77.51,0 173.82,40.019 173.82,127.453 0,68.562 -70.25,98.008 -110.35,116.933 -37.95,18.895 -79.15,31.434 -79.15,49.93 0,7.551 5.46,16.848 24.12,29.211 8.33,-2.434 16.86,-4.914 33.11,-4.914 71.59,0 144.81,60.324 144.81,161.457 0,30.675 -8.38,58.965 -25.39,79.425 l 59.22,-2.64 8.57,45.21"
             inkscape:connector-curvature="0"
             id="path30"
             style="fill:#223161;fill-opacity:1;fill-rule:evenodd;stroke:none" /><path
             d="m 2675.01,1121.62 -78.26,-433.597 72.41,0 78.43,433.597 -72.58,0"
             inkscape:connector-curvature="0"
             id="path32"
             style="fill:#223161;fill-opacity:1;fill-rule:evenodd;stroke:none" /><path
             d="m 2864.82,807.699 c 0,117.239 53.12,280.621 129.57,280.621 40.7,0 55.27,-44.02 55.27,-83.27 0,-76.577 -39.8,-281.948 -128,-281.948 -52.09,0 -56.84,64.804 -56.84,83.718 l 0,0.879 z m -75.84,30.469 c 0,-89.356 46.03,-158.875 127.58,-158.875 137.41,0 208.94,174.902 208.94,301.973 0,64.984 -31.5,149.094 -125.52,149.094 -142.99,0 -211,-181.235 -211,-291.321 l 0,-0.871"
             inkscape:connector-curvature="0"
             id="path34"
             style="fill:#223161;fill-opacity:1;fill-rule:evenodd;stroke:none" /><path
             d="m 2673.02,1216.9 c 0,27.08 21.95,49.05 49.04,49.05 27.09,0 49.03,-21.97 49.03,-49.05 0,-27.07 -21.94,-49.03 -49.03,-49.03 -27.09,0 -49.04,21.96 -49.04,49.03"
             inkscape:connector-curvature="0"
             id="path36"
             style="fill:#223161;fill-opacity:1;fill-rule:evenodd;stroke:none" /><path
             d="m 1013.79,590.27 c -34.884,17.031 -71.177,23.503 -100.583,23.503 -100.395,0 -174.555,-66.718 -174.555,-162.89 0,-63.828 35.364,-106.074 81.641,-154.645 l 11.035,-11.367 c 44.906,-47.031 65.375,-76.121 65.375,-110.23 0,-49.461 -33.555,-105.0512 -104.398,-105.0512 -43.297,0 -82.688,21.4883 -103.067,33.3202 L 668.422,57.6094 c 37,-26.3477 79.629,-39.7813 126.312,-39.7813 107.528,0 173.727,84.6719 173.727,173.0699 0,59.25 -27.078,98.75 -89.035,159.567 l -15.789,15.547 c -30.926,30.926 -53.114,59.187 -53.114,100.078 0,57.48 43.68,95.918 103.825,95.918 31.414,0 58.882,-9.043 81.48,-19.102 l 17.962,47.364"
             inkscape:connector-curvature="0"
             id="path38"
             style="fill:#223161;fill-opacity:1;fill-rule:evenodd;stroke:none" /><path
             d="m 1083.57,133.961 c 0,112.758 64.92,289.344 158.74,289.344 18.89,0 32.27,-4.532 37.47,-6.961 -19.46,-99.344 -40.92,-171.383 -58.7,-220.215 -22.32,-62.328 -63.8,-123.9298 -100.64,-123.9298 -32.32,0 -36.87,42.7418 -36.87,60.9218 l 0,0.84 z m 272.35,307.402 c -28.67,14.617 -64.65,27.598 -104.18,27.598 -155.24,0 -244.01,-196.281 -244.01,-329.063 0,-77.6285 33.27,-122.0464 84.61,-122.0464 79.89,0 127.06,101.1874 144.2,136.5194 l -23.21,-127.7421 67.71,0 74.88,414.7341"
             inkscape:connector-curvature="0"
             id="path40"
             style="fill:#223161;fill-opacity:1;fill-rule:evenodd;stroke:none" /><path
             d="m 1482.49,460.18 -78.04,-433.6019 71.22,0 c 20.56,109.7309 38.89,195.8519 71.25,274.6599 13.87,33.766 56.95,113.336 102.08,113.336 8.99,0 29.26,-3.867 29.26,-33.386 0,-18.204 -7.42,-55.149 -8.82,-64.208 l -51.95,-290.4019 72.17,0 52.26,291.4999 c 1.78,11.906 8.23,49.184 8.23,71.633 0,45.508 -26.98,79.25 -72.84,79.25 -57.35,0 -110.52,-51.359 -150.93,-141.945 l 23.36,133.164 -67.25,0"
             inkscape:connector-curvature="0"
             id="path42"
             style="fill:#223161;fill-opacity:1;fill-rule:evenodd;stroke:none" /><path
             d="m 1921.91,575.082 -20.54,-114.98 -60.13,0 -8.41,-46.348 56.59,0 -48.32,-267.684 c -4.42,-25.582 -7.92,-44.371 -7.92,-61.7809 0,-45.8907 30.9,-66.461 67.11,-66.461 15.65,0 51.6,3.6328 91.77,25.6211 l -15.71,41.5391 c -12.7,-6.6875 -31.59,-17.1602 -49.39,-17.1602 -13.56,0 -20.84,9.6328 -20.84,21.5508 0,15.3911 2.53,28.7931 6.78,51.8711 l 48.79,272.504 71.09,0 8.59,46.348 -71.09,0 20.55,114.98 -68.92,0"
             inkscape:connector-curvature="0"
             id="path44"
             style="fill:#223161;fill-opacity:1;fill-rule:evenodd;stroke:none" /><path
             d="m 2113.93,133.961 c 0,112.758 64.93,289.344 158.74,289.344 18.89,0 32.27,-4.532 37.46,-6.961 -19.45,-99.344 -40.92,-171.383 -58.69,-220.215 -22.3,-62.328 -63.81,-123.9298 -100.63,-123.9298 -32.32,0 -36.88,42.7418 -36.88,60.9218 l 0,0.84 z m 272.34,307.402 c -28.68,14.617 -64.61,27.598 -104.18,27.598 -155.21,0 -243.97,-196.281 -243.97,-329.063 0,-77.6285 33.24,-122.0464 84.58,-122.0464 79.9,0 127.07,101.1874 144.21,136.5194 l -23.21,-127.7421 67.7,0 74.87,414.7341"
             inkscape:connector-curvature="0"
             id="path46"
             style="fill:#223161;fill-opacity:1;fill-rule:evenodd;stroke:none" /><path
             d="m 2642.5,486.059 28.69,-221.618 -127.86,0 99.17,221.618 z m 2.89,119.824 -270.9,-579.3049 62.32,0 86.32,192.2309 153.95,0 23.76,-192.2309 77.29,0 -83.66,579.3049 -49.08,0"
             inkscape:connector-curvature="0"
             id="path48"
             style="fill:#223161;fill-opacity:1;fill-rule:evenodd;stroke:none" /><path
             d="m 2914.76,460.102 -78.22,-433.5239 71.22,0 c 22.11,118.1919 44.51,233.8439 84.72,309.4729 18.28,34.129 48.02,77.703 82.2,77.703 22.29,0 28.63,-17.949 28.63,-34.07 0,-18.899 -4.91,-46.965 -6.79,-57.946 l -53.19,-295.1599 71.22,0 c 15.81,86.2109 35.73,193.5119 69.69,274.0119 8.88,20.922 48.9,113.164 98.82,113.164 21.08,0 28.05,-17.227 28.05,-32.695 0,-8.602 -2.06,-30.36 -7.58,-60.008 l -52.82,-294.4729 71.82,0 53.54,296.2929 c 2.85,17.328 7.58,46.488 7.58,66 0,56.172 -33.79,80.09 -71.75,80.09 -81.12,0 -129.52,-99.113 -145.23,-129.551 3.46,17.684 6.14,35.508 6.14,52.996 0,47.617 -28.96,76.555 -71.44,76.555 -68.11,0 -115.81,-75.383 -141,-130.813 l 21.46,121.954 -67.07,0"
             inkscape:connector-curvature="0"
             id="path50"
             style="fill:#223161;fill-opacity:1;fill-rule:evenodd;stroke:none" /><path
             d="m 3740.45,636.02 c -36.29,-43.067 -70.71,-63.985 -127.41,-100.059 l 12.5,-29.109 c 45.8,23.503 88.97,44.531 147.94,51.132 l 18.61,58.25 -51.64,19.786 z M 3512.14,133.961 c 0,112.758 64.91,289.344 158.73,289.344 18.9,0 32.28,-4.532 37.48,-6.961 C 3688.88,317 3667.44,244.961 3649.65,196.129 3627.32,133.801 3585.84,72.1992 3549,72.1992 c -32.33,0 -36.86,42.7418 -36.86,60.9218 l 0,0.84 z m 272.34,307.402 c -28.67,14.617 -64.64,27.598 -104.17,27.598 -155.24,0 -244.01,-196.281 -244.01,-329.063 0,-77.6285 33.26,-122.0464 84.61,-122.0464 79.88,0 127.06,101.1874 144.2,136.5194 l -23.22,-127.7421 67.72,0 74.87,414.7341"
             inkscape:connector-curvature="0"
             id="path52"
             style="fill:#223161;fill-opacity:1;fill-rule:evenodd;stroke:none" /><path
             d="m 3947.53,662.934 -114.74,-636.3559 72.32,0 114.75,636.3559 -72.33,0"
             inkscape:connector-curvature="0"
             id="path54"
             style="fill:#223161;fill-opacity:1;fill-rule:evenodd;stroke:none" /><path
             d="m 4107.3,460.18 -78.26,-433.6019 72.42,0 78.42,433.6019 -72.58,0"
             inkscape:connector-curvature="0"
             id="path56"
             style="fill:#223161;fill-opacity:1;fill-rule:evenodd;stroke:none" /><path
             d="m 4293.16,133.961 c 0,112.758 64.92,289.344 158.73,289.344 18.9,0 32.28,-4.532 37.47,-6.961 C 4469.9,317 4448.45,244.961 4430.67,196.129 4408.33,133.801 4366.86,72.1992 4330.01,72.1992 c -32.3,0 -36.85,42.7418 -36.85,60.9218 l 0,0.84 z m 272.34,307.402 c -28.68,14.617 -64.65,27.598 -104.18,27.598 -155.23,0 -244,-196.281 -244,-329.063 0,-77.6285 33.25,-122.0464 84.61,-122.0464 79.87,0 127.06,101.1874 144.2,136.5194 l -23.22,-127.7421 67.72,0 74.87,414.7341"
             inkscape:connector-curvature="0"
             id="path58"
             style="fill:#223161;fill-opacity:1;fill-rule:evenodd;stroke:none" /><path
             d="m 4111.42,579.566 c 0,27.09 21.96,49.063 49.04,49.063 27.09,0 49.05,-21.973 49.05,-49.063 0,-27.062 -21.96,-49.035 -49.05,-49.035 -27.08,0 -49.04,21.973 -49.04,49.035"
             inkscape:connector-curvature="0"
             id="path60"
             style="fill:#223161;fill-opacity:1;fill-rule:evenodd;stroke:none" /><path
             d="M 359.387,246 C 412.562,398.844 158.5,524.008 85.3359,719.645 31.043,864.82 76.5586,950.551 130.426,1025.23 69.4375,874.711 325.973,714.359 401.66,554.77 474.242,401.703 425.43,311.09 359.387,246"
             inkscape:connector-curvature="0"
             id="path62"
             style="fill:#1a66b5;fill-opacity:1;fill-rule:evenodd;stroke:none" /><path
             d="M 63.793,742.379 C 5.86328,599.379 240.176,414.242 336.137,276.59 396.129,190.52 385.48,56.5898 293.023,0.0898438 359.758,120.449 93.4805,253.172 23.9805,439.027 -27.6016,576.957 12.6211,671.43 63.793,742.379"
             inkscape:connector-curvature="0"
             id="path64"
             style="fill:#f9aa24;fill-opacity:1;fill-rule:evenodd;stroke:none" /><path
             d="M 784.293,661.656 C 627.367,593.539 674.707,308.91 556.406,136.781 468.621,9.05859 385.117,-1.19922 293.023,0.0898438 451.328,36.4492 439.758,354.82 519.359,509.34 c 77.567,150.586 177.52,163.476 264.934,152.316"
             inkscape:connector-curvature="0"
             id="path66"
             style="fill:#ee252e;fill-opacity:1;fill-rule:evenodd;stroke:none" /></g></g></g></g></svg>
